ply
format ascii 1.0
comment VCGLIB generated
element vertex 513
property float x
property float y
property float z
element face 1026
property list uchar int vertex_indices
end_header
-4.571978 5.134323 101.0976 
-3.67862 3.386408 101.6 
-2.734741 4.185833 101.6 
-5.415273 4.235454 101.0976 
-6.32431 6.04666 100.5952 
-5.143003 7.078737 100.5952 
-13.67096 4.441965 99.08811 
-12.18621 2.781423 99.59048 
-11.49373 4.912656 99.59048 
-14.24441 1.929536 99.08811 
-15.84199 3.615832 98.58573 
-14.94177 6.386421 98.58573 
-21.38633 -4.593597 97.0786 
-23.44458 -3.790338 96.57622 
-22.7674 -6.757246 96.57622 
-19.02037 -6.180093 97.58098 
-19.8182 -2.684558 97.58098 
-8.306725 6.624392 100.0929 
-7.302349 4.820239 100.5952 
-9.034647 8.638007 99.59048 
-10.43183 6.885992 99.59048 
-9.356063 5.034712 100.0929 
-17.96027 2.432884 98.08335 
-16.23304 0.7290266 98.58573 
-18.10605 -0.8131437 98.08335 
-19.97906 0.8972607 97.58098 
-19.49778 4.450241 97.58098 
-12.65812 6.811625 99.08811 
-13.56131 8.951745 98.58573 
-3.378686 5.987381 101.0976 
-1.623497 4.729086 101.6 
-3.796396 7.883297 100.5952 
-6.990402 8.001159 100.0929 
-7.347081 10.11239 99.59048 
-17.23723 5.600717 98.08335 
-18.38982 7.860186 97.58098 
-2.612145 6.35932 101.0976 
-2.327769 8.434483 100.5952 
-11.23844 8.962354 99.08811 
-11.74498 11.22935 98.58573 
-21.59371 3.491104 97.0786 
-23.15356 5.28465 96.57622 
-23.63926 2.280451 96.57622 
-5.449401 9.120761 100.0929 
-5.423373 11.26175 99.59048 
-15.96018 8.588538 98.08335 
-16.6908 11.0175 97.58098 
-20.97 6.223785 97.0786 
-22.28769 8.202075 96.57622 
-1.203586 6.768724 101.0976 
-0.4128967 4.982923 101.6 
-0.784326 8.714576 100.5952 
-9.457541 10.82503 99.08811 
-9.551158 13.14604 98.58573 
-3.733252 9.947215 100.0929 
-3.325354 12.04915 99.59048 
-14.17015 11.30032 98.08335 
-14.45532 13.8207 97.58098 
0.02435875 6.874857 101.0976 
0.822973 4.931807 101.6 
0.784326 8.714576 100.5952 
-7.372671 12.33977 99.08811 
-7.050351 14.6402 98.58573 
-1.897113 10.45396 100.0929 
-1.120456 12.44928 99.59048 
-11.92468 13.64889 98.08335 
-11.75523 16.17969 97.58098 
-5.050838 13.45791 99.08811 
-4.322939 15.66382 98.58573 
-16.92558 13.85645 97.0786 
2.327769 8.434483 100.5952 
-17.58086 15.96647 96.57622 
-19.47827 13.5872 96.57622 
-1.30115e-15 10.6247 100.0929 
1.120456 12.44928 99.59048 
-9.29594 15.55878 98.08335 
-8.677328 18.01866 97.58098 
2.301266 6.478304 101.0976 
3.796396 7.883297 100.5952 
2.008477 4.578866 101.6 
-2.566666 14.1435 99.08811 
-1.456585 16.18398 98.58573 
1.897113 10.45396 100.0929 
3.325354 12.04915 99.59048 
-6.368423 16.9686 98.08335 
-5.320524 19.27849 97.58098 
-1.760369e-15 14.3745 99.08811 
1.456585 16.18398 98.58573 
3.623229 5.842642 101.0976 
3.071064 3.945703 101.6 
5.143003 7.078737 100.5952 
-10.734 19.05931 97.0786 
-10.30431 21.39711 96.57622 
-12.95591 19.90376 96.57622 
3.733252 9.947215 100.0929 
5.423373 11.26175 99.59048 
-3.236219 17.83303 98.08335 
-1.792714 19.91869 97.58098 
-8.208628 20.27547 97.0786 
-7.483505 22.53913 96.57622 
2.566666 14.1435 99.08811 
4.322939 15.66382 98.58573 
4.608246 5.101796 101.0976 
3.945703 3.071064 101.6 
6.32431 6.04666 100.5952 
5.449401 9.120761 100.0929 
7.347081 10.11239 99.59048 
-2.219587e-15 18.1243 98.08335 
1.792714 19.91869 97.58098 
5.050838 13.45791 99.08811 
7.050351 14.6402 98.58573 
6.990402 8.001159 100.0929 
9.034647 8.638007 99.59048 
3.236219 17.83303 98.08335 
5.320524 19.27849 97.58098 
6.038548 3.286364 101.0976 
8.045684 3.43889 100.5952 
7.302349 4.820239 100.5952 
4.578866 2.008477 101.6 
7.372671 12.33977 99.08811 
9.551158 13.14604 98.58573 
0.2804801 21.8723 97.0786 
1.521604 23.7002 96.57622 
-1.521604 23.7002 96.57622 
8.306725 6.624392 100.0929 
10.43183 6.885992 99.59048 
6.368423 16.9686 98.08335 
8.677328 18.01866 97.58098 
6.528309 2.155326 101.0976 
8.530424 1.947014 100.5952 
4.931807 0.822973 101.6 
9.457541 10.82503 99.08811 
11.74498 11.22935 98.58573 
9.356063 5.034712 100.0929 
11.49373 4.912656 99.59048 
9.29594 15.55878 98.08335 
11.75523 16.17969 97.58098 
11.23844 8.962354 99.08811 
13.56131 8.951745 98.58573 
6.836955 0.7213144 101.0976 
8.74099 0.3925583 100.5952 
8.208628 20.27547 97.0786 
10.30431 21.39711 96.57622 
7.483505 22.53913 96.57622 
10.10469 3.283213 100.0929 
12.18621 2.781423 99.59048 
11.92468 13.64889 98.08335 
14.45532 13.8207 97.58098 
6.873672 -0.1299059 101.0976 
4.982923 -0.4128967 101.6 
8.670612 -1.174514 100.5952 
10.734 19.05931 97.0786 
12.95591 19.90376 96.57622 
12.65812 6.811625 99.08811 
14.94177 6.386421 98.58573 
10.52854 1.426188 100.0929 
12.48701 0.5607924 99.59048 
14.17015 11.30032 98.08335 
16.6908 11.0175 97.58098 
13.67096 4.441965 99.08811 
15.84199 3.615832 98.58573 
6.689655 -1.585168 101.0976 
4.729086 -1.623497 101.6 
8.321554 -2.703837 100.5952 
10.614 -0.4766754 100.0929 
12.38648 -1.677862 99.59048 
15.96018 8.588538 98.08335 
18.38982 7.860186 97.58098 
14.24441 1.929536 99.08811 
16.23304 0.7290266 98.58573 
6.299107 -2.754178 101.0976 
4.185833 -2.734741 101.6 
7.705035 -4.146256 100.5952 
17.27533 13.41787 97.0786 
19.47827 13.5872 96.57622 
17.58086 15.96647 96.57622 
10.35832 -2.364218 100.0929 
11.88783 -3.862589 99.59048 
17.23723 5.600717 98.08335 
19.49778 4.450241 97.58098 
14.36003 -0.6449095 99.08811 
16.10234 -2.18121 98.58573 
9.769707 -4.175773 100.0929 
11.00709 -5.923169 99.59048 
17.96027 2.432884 98.08335 
19.97906 0.8972607 97.58098 
5.030444 -4.686031 101.0976 
3.386408 -3.67862 101.6 
6.840869 -5.455411 100.5952 
5.756832 -6.589225 100.5952 
14.0141 -3.198627 99.08811 
15.4541 -5.021341 98.58573 
20.97 6.223785 97.0786 
23.15356 5.28465 96.57622 
22.28769 8.202075 96.57622 
8.86709 -5.853115 100.0929 
9.772581 -7.793373 99.59048 
18.10605 -0.8131437 98.08335 
19.8182 -2.684558 97.58098 
21.59371 3.491104 97.0786 
23.63926 2.280451 96.57622 
4.11288 -5.508945 101.0976 
2.379737 -4.397369 101.6 
4.487766 -7.511255 100.5952 
13.21775 -5.649539 99.08811 
14.30915 -7.700081 98.58573 
7.679479 -7.342333 100.0929 
8.223971 -9.413092 99.59048 
17.66989 -4.033036 98.08335 
19.02037 -6.180093 97.58098 
11.99657 -7.918869 99.08811 
12.70429 -10.13134 98.58573 
2.850564 -6.25608 101.0976 
3.07446 -8.191868 100.5952 
1.227427 -4.847002 101.6 
6.245042 -8.595563 100.0929 
6.411036 -10.73027 99.59048 
16.6658 -7.123303 98.08335 
17.61121 -9.476995 97.58098 
2.054842 -6.56063 101.0976 
1.562337 -8.609187 100.5952 
10.38981 -9.93368 99.08811 
10.69111 -12.23696 98.58573 
21.26151 -5.140493 97.0786 
22.7674 -6.757246 96.57622 
23.44458 -3.790338 96.57622 
4.609885 -9.572524 100.0929 
4.392045 -11.70256 99.59048 
15.12606 -9.984622 98.08335 
15.636 -12.4693 97.58098 
0.6162613 -6.847224 101.0976 
1.224647e-15 -5 101.6 
8.44912 -11.62922 99.08811 
8.334306 -13.94928 98.58573 
2.826562 -10.24182 100.0929 
2.23189 -12.29873 99.59048 
13.10015 -12.52503 98.08335 
13.15825 -15.06083 97.58098 
0.784326 -8.714576 100.5952 
6.236862 -12.95098 99.08811 
5.70963 -15.21325 98.58573 
17.94053 -12.51454 97.0786 
18.56772 -14.80726 96.57622 
20.30879 -12.31131 96.57622 
0.9523908 -10.58193 100.0929 
10.6532 -14.66287 98.08335 
10.25758 -17.16829 97.58098 
16.19291 -14.70598 97.0786 
16.52176 -17.06008 96.57622 
3.824147 -13.85648 99.08811 
2.901442 -15.98827 98.58573 
7.863839 -16.32943 98.08335 
7.027215 -18.72395 97.58098 
4.821732 -17.47115 98.08335 
9.237332 -19.82796 97.0786 
8.912216 -22.01335 96.57622 
11.65405 -20.69295 96.57622 
-4.487766 -7.511255 100.5952 
-3.07446 -8.191868 100.5952 
-2.169419 -4.504844 101.6 
1.960779 -21.78604 97.0786 
1.792714 -19.91869 97.58098 
0 -23.749 96.57622 
3.570995 -19.6778 97.58098 
3.036955 -23.55402 96.57622 
-0.3504997 -7.804483 100.8464 
-0.6162613 -6.847224 101.0976 
-0.784326 -8.714576 100.5952 
-1.803699 -13.31544 99.3393 
-3.824147 -13.85648 99.08811 
-2.901442 -15.98827 98.58573 
-2.23189 -12.29873 99.59048 
-0.7710851 -17.16954 98.33454 
-1.792714 -19.91869 97.58098 
-3.403607 -18.75542 97.83217 
-3.570995 -19.6778 97.58098 
-7.027215 -18.72395 97.58098 
-4.821732 -17.47115 98.08335 
-3.929173 -22.47061 96.82741 
-6.024043 -22.97229 96.57622 
-3.036955 -23.55402 96.57622 
-1.960779 -21.78604 97.0786 
-8.015405 -21.35697 96.82741 
-8.912216 -22.01335 96.57622 
-9.74274 -19.58457 97.0786 
-11.95016 -19.43091 96.82741 
-14.20453 -19.03277 96.57622 
-11.65405 -20.69295 96.57622 
-15.33623 -16.88689 96.82741 
-16.19291 -14.70598 97.0786 
-16.52176 -17.06008 96.57622 
-19.87613 -11.19403 96.82741 
-21.71638 -9.613199 96.57622 
-20.30879 -12.31131 96.57622 
-17.94053 -12.51454 97.0786 
-17.61121 -9.476995 97.58098 
-21.69507 -7.049157 96.82741 
-22.64251 -2.771964 96.82741 
-23.7368 -0.7611929 96.57622 
-22.76468 1.461541 96.82741 
-21.14441 8.560422 96.82741 
-21.05585 10.98482 96.57622 
-19.03791 12.56681 96.82741 
-16.28458 15.97433 96.82741 
-15.39478 18.08358 96.57622 
-13.05087 18.7094 96.82741 
-6.490515 21.8687 96.82741 
-4.539826 23.31105 96.57622 
-2.044811 22.71972 96.82741 
2.335967 22.69163 96.82741 
4.539826 23.31105 96.57622 
6.490515 21.8687 96.82741 
13.05087 18.7094 96.82741 
15.39478 18.08358 96.57622 
16.48807 15.76421 96.82741 
19.19748 12.32167 96.82741 
21.05585 10.98482 96.57622 
21.14441 8.560422 96.82741 
22.76468 1.461541 96.82741 
23.7368 -0.7611929 96.57622 
22.6051 -3.062069 96.82741 
21.6029 -7.326762 96.82741 
21.71638 -9.613199 96.57622 
0.3504997 -7.804483 100.8464 
-8.670612 -1.174514 100.5952 
-8.321554 -2.703837 100.5952 
-4.87464 -1.112605 101.6 
19.87613 -11.19403 96.82741 
1.803699 -13.31544 99.3393 
15.33623 -16.88689 96.82741 
14.20453 -19.03277 96.57622 
11.70003 -19.58255 96.82741 
0.7710851 -17.16954 98.33454 
3.403607 -18.75542 97.83217 
7.740896 -21.45799 96.82741 
6.024043 -22.97229 96.57622 
3.929173 -22.47061 96.82741 
-0.248915 -11.09063 99.96727 
-0.9523908 -10.58193 100.0929 
-5.694618 -20.63399 97.20419 
-12.69253 -17.23629 97.20419 
-10.25758 -17.16829 97.58098 
-13.15825 -15.06083 97.58098 
-1.112605 -4.87464 101.6 
-19.68284 -8.412848 97.20419 
-1.562337 -8.609187 100.5952 
-20.88866 -9.16682 96.82741 
-1.977217 -6.584441 101.0976 
-21.38954 -0.8232292 97.20419 
-18.84948 10.14334 97.20419 
-2.826562 -10.24182 100.0929 
-4.392045 -11.70256 99.59048 
-3.915149 -5.651182 101.0976 
-5.756832 -6.589225 100.5952 
-20.19078 10.616 96.82741 
-3.117449 -3.909158 101.6 
-13.97979 16.20974 97.20419 
-4.609885 -9.572524 100.0929 
-6.411036 -10.73027 99.59048 
-4.969142 -4.750987 101.0976 
-3.909158 -3.117449 101.6 
-3.822077 21.06138 97.20419 
-6.840869 -5.455411 100.5952 
-5.70963 -15.21325 98.58573 
-4.288824 22.40475 96.82741 
-6.245042 -8.595563 100.0929 
-8.223971 -9.413092 99.59048 
3.957031 21.03644 97.20419 
-5.737607 -3.787362 101.0976 
-7.705035 -4.146256 100.5952 
-4.504844 -2.169419 101.6 
-6.236862 -12.95098 99.08811 
-8.334306 -13.94928 98.58573 
14.08343 16.11978 97.20419 
14.8427 17.32227 96.82741 
-7.679479 -7.342333 100.0929 
-9.772581 -7.793373 99.59048 
18.91412 10.02228 97.20419 
21.38382 -0.9603485 97.20419 
-8.44912 -11.62922 99.08811 
-10.69111 -12.23696 98.58573 
22.79737 -0.8042318 96.82741 
19.62849 -8.538869 97.20419 
-6.380698 -2.559482 101.0976 
-8.045684 3.43889 100.5952 
-4.397369 2.379737 101.6 
0.248915 -11.09063 99.96727 
-8.86709 -5.853115 100.0929 
-11.00709 -5.923169 99.59048 
-7.863839 -16.32943 98.08335 
12.58176 -17.31731 97.20419 
-10.38981 -9.93368 99.08811 
-12.70429 -10.13134 98.58573 
13.58515 -18.32513 96.82741 
-9.769707 -4.175773 100.0929 
5.562209 -20.67007 97.20419 
-11.88783 -3.862589 99.59048 
-10.6532 -14.66287 98.08335 
-7.733396 -20.21071 97.1414 
-6.859327 -0.4624677 101.0976 
-8.74099 0.3925583 100.5952 
-5 6.123234e-16 101.6 
-14.49699 -16.06598 97.1414 
-11.99657 -7.918869 99.08811 
-14.30915 -7.700081 98.58573 
-20.62306 -6.554959 97.1414 
-21.59961 1.317228 97.1414 
-10.35832 -2.364218 100.0929 
-17.98314 12.03681 97.1414 
-12.38648 -1.677862 99.59048 
-12.43729 17.70853 97.1414 
-13.10015 -12.52503 98.08335 
-15.636 -12.4693 97.58098 
-1.801549 21.56462 97.1414 
-13.21775 -5.649539 99.08811 
-15.4541 -5.021341 98.58573 
6.090567 20.76495 97.1414 
-6.801306 1.003235 101.0976 
-4.847002 1.227427 101.6 
-8.530424 1.947014 100.5952 
15.73665 14.85383 97.1414 
-10.614 -0.4766754 100.0929 
20.0321 8.184938 97.1414 
-12.48701 0.5607924 99.59048 
-15.12606 -9.984622 98.08335 
21.42483 -3.042198 97.1414 
-14.0141 -3.198627 99.08811 
-16.10234 -2.18121 98.58573 
18.88905 -10.5585 97.1414 
-6.512872 2.201533 101.0976 
10.97968 -18.64738 97.1414 
-18.56772 -14.80726 96.57622 
-10.52854 1.426188 100.0929 
-16.6658 -7.123303 98.08335 
-14.36003 -0.6449095 99.08811 
-10.10469 3.283213 100.0929 
-17.66989 -4.033036 98.08335 
0.6026834 4.963544 0 
-0.6026834 4.963544 0 
-1.773024 4.675081 0 
-5 6.123234e-16 0 
-4.854709 -1.196578 0 
-2.840324 4.114919 0 
-4.42728 -2.323616 0 
-3.742554 3.315613 0 
-3.742554 -3.315613 0 
-4.42728 2.323616 0 
-2.840324 -4.114919 0 
-4.854709 1.196578 0 
-1.773024 -4.675081 0 
-0.6026834 -4.963544 0 
0.6026834 -4.963544 0 
1.773024 -4.675081 0 
2.840324 -4.114919 0 
3.742554 -3.315613 0 
4.42728 -2.323616 0 
4.854709 -1.196578 0 
5 -1.454732e-14 0 
4.854709 1.196578 0 
4.42728 2.323616 0 
3.742554 3.315613 0 
2.840324 4.114919 0 
1.773024 4.675081 0 
-7.271034e-15 -23.749 0 
2.862626 -23.57584 0 
5.683508 -23.0589 0 
8.421512 -22.2057 0 
11.03671 -21.0287 0 
13.49097 -19.54504 0 
15.7485 -17.77638 0 
17.77638 -15.7485 0 
19.54504 -13.49097 0 
21.0287 -11.03671 0 
22.2057 -8.421512 0 
23.0589 -5.683508 0 
23.57584 -2.862626 0 
23.749 2.908414e-15 0 
23.55664 3.016546 0 
22.98269 5.984227 0 
22.03644 8.854968 0 
20.73321 11.58227 0 
19.09413 14.12194 0 
17.14573 16.43286 0 
14.9196 18.47757 0 
12.45177 20.22297 0 
9.782243 21.64077 0 
6.954248 22.708 0 
4.0136 23.40739 0 
1.007936 23.7276 0 
-2.014056 23.66344 0 
-5.003422 23.21596 0 
-7.911737 22.3924 0 
-10.69189 21.2061 0 
-13.29884 19.67628 0 
-15.69036 17.82772 0 
-17.82772 15.69036 0 
-19.67628 13.29884 0 
-21.2061 10.69189 0 
-22.3924 7.911737 0 
-23.21596 5.003422 0 
-23.66344 2.014056 0 
-23.7276 -1.007936 0 
-23.40739 -4.0136 0 
-22.708 -6.954248 0 
-21.64077 -9.782243 0 
-20.22297 -12.45177 0 
-18.47757 -14.9196 0 
-16.43286 -17.14573 0 
-14.12194 -19.09413 0 
-11.58227 -20.73321 0 
-8.854968 -22.03644 0 
-5.984227 -22.98269 0 
-3.016546 -23.55664 0 
3 0 1 2 
3 0 3 1 
3 0 4 3 
3 0 5 4 
3 6 7 8 
3 6 9 7 
3 6 10 9 
3 6 11 10 
3 12 13 14 
3 12 15 16 
3 17 18 4 
3 17 19 20 
3 17 21 18 
3 17 20 21 
3 22 23 10 
3 22 24 23 
3 22 25 24 
3 22 26 25 
3 27 28 11 
3 27 6 8 
3 27 8 20 
3 27 11 6 
3 29 2 30 
3 29 0 2 
3 29 5 0 
3 29 31 5 
3 32 33 19 
3 32 4 5 
3 32 17 4 
3 32 19 17 
3 34 26 22 
3 34 35 26 
3 34 22 10 
3 34 10 11 
3 36 31 29 
3 36 29 30 
3 36 37 31 
3 38 27 20 
3 38 20 19 
3 38 28 27 
3 38 39 28 
3 40 41 42 
3 40 25 26 
3 43 32 5 
3 43 33 32 
3 43 44 33 
3 43 5 31 
3 45 34 11 
3 45 35 34 
3 45 11 28 
3 45 46 35 
3 47 26 35 
3 47 40 26 
3 47 48 41 
3 47 41 40 
3 49 30 50 
3 49 36 30 
3 49 37 36 
3 49 51 37 
3 52 19 33 
3 52 38 19 
3 52 39 38 
3 52 53 39 
3 54 43 31 
3 54 44 43 
3 54 55 44 
3 54 31 37 
3 56 57 46 
3 56 45 28 
3 56 46 45 
3 56 28 39 
3 58 50 59 
3 58 59 60 
3 58 51 49 
3 58 49 50 
3 58 60 51 
3 61 52 33 
3 61 62 53 
3 61 53 52 
3 61 33 44 
3 63 54 37 
3 63 37 51 
3 63 55 54 
3 63 64 55 
3 65 57 56 
3 65 66 57 
3 65 56 39 
3 65 39 53 
3 67 62 61 
3 67 61 44 
3 67 68 62 
3 67 44 55 
3 69 46 57 
3 70 60 59 
3 69 71 72 
3 73 74 64 
3 73 63 51 
3 73 64 63 
3 73 51 60 
3 75 53 62 
3 75 76 66 
3 75 66 65 
3 75 65 53 
3 77 78 70 
3 77 59 79 
3 77 70 59 
3 80 67 55 
3 80 81 68 
3 80 55 64 
3 80 68 67 
3 82 83 74 
3 82 74 73 
3 82 73 60 
3 82 60 70 
3 84 75 62 
3 84 85 76 
3 84 76 75 
3 84 62 68 
3 86 64 74 
3 86 87 81 
3 86 80 64 
3 86 81 80 
3 88 79 89 
3 88 90 78 
3 88 78 77 
3 88 77 79 
3 91 66 76 
3 91 92 93 
3 94 70 78 
3 94 83 82 
3 94 95 83 
3 94 82 70 
3 96 68 81 
3 96 97 85 
3 96 85 84 
3 96 84 68 
3 98 99 92 
3 98 76 85 
3 98 91 76 
3 98 92 91 
3 100 74 83 
3 100 86 74 
3 100 87 86 
3 100 101 87 
3 102 89 103 
3 102 88 89 
3 102 103 104 
3 102 104 90 
3 102 90 88 
3 105 78 90 
3 105 94 78 
3 105 106 95 
3 105 95 94 
3 107 108 97 
3 107 96 81 
3 107 81 87 
3 107 97 96 
3 109 83 95 
3 109 100 83 
3 109 110 101 
3 109 101 100 
3 111 106 105 
3 111 90 104 
3 111 105 90 
3 111 112 106 
3 113 107 87 
3 113 114 108 
3 113 108 107 
3 113 87 101 
3 115 116 117 
3 115 103 118 
3 115 117 103 
3 119 120 110 
3 119 110 109 
3 119 109 95 
3 119 95 106 
3 121 122 123 
3 121 97 108 
3 124 125 112 
3 124 111 104 
3 124 112 111 
3 124 104 117 
3 126 127 114 
3 126 114 113 
3 126 113 101 
3 126 101 110 
3 128 129 116 
3 128 118 130 
3 128 115 118 
3 128 116 115 
3 131 132 120 
3 131 120 119 
3 131 119 106 
3 131 106 112 
3 133 117 116 
3 133 125 124 
3 133 134 125 
3 133 124 117 
3 135 110 120 
3 135 126 110 
3 135 127 126 
3 135 136 127 
3 137 131 112 
3 137 112 125 
3 137 138 132 
3 137 132 131 
3 139 129 128 
3 139 128 130 
3 139 140 129 
3 141 114 127 
3 117 104 103 
3 141 142 143 
3 144 133 116 
3 144 116 129 
3 144 134 133 
3 144 145 134 
3 146 135 120 
3 146 136 135 
3 146 120 132 
3 146 147 136 
3 148 139 130 
3 148 130 149 
3 148 150 140 
3 148 140 139 
3 151 152 142 
3 151 142 141 
3 151 141 127 
3 151 127 136 
3 153 125 134 
3 153 154 138 
3 153 137 125 
3 153 138 137 
3 155 156 145 
3 155 144 129 
3 155 145 144 
3 155 129 140 
3 157 132 138 
3 157 158 147 
3 157 146 132 
3 157 147 146 
3 159 154 153 
3 159 160 154 
3 159 153 134 
3 159 134 145 
3 161 149 162 
3 161 163 150 
3 161 148 149 
3 161 150 148 
3 164 140 150 
3 164 156 155 
3 164 165 156 
3 164 155 140 
3 166 138 154 
3 166 157 138 
3 166 167 158 
3 166 158 157 
3 168 145 156 
3 168 169 160 
3 168 159 145 
3 168 160 159 
3 170 161 162 
3 170 162 171 
3 170 171 172 
3 170 172 163 
3 170 163 161 
3 173 147 158 
3 173 174 175 
3 176 150 163 
3 176 177 165 
3 176 164 150 
3 176 165 164 
3 178 166 154 
3 178 154 160 
3 178 179 167 
3 178 167 166 
3 180 168 156 
3 180 156 165 
3 180 181 169 
3 180 169 168 
3 182 163 172 
3 182 176 163 
3 182 183 177 
3 182 177 176 
3 184 179 178 
3 184 160 169 
3 184 185 179 
3 184 178 160 
3 186 171 187 
3 186 188 171 
3 186 189 188 
3 190 165 177 
3 190 180 165 
3 190 181 180 
3 190 191 181 
3 192 193 194 
3 192 167 179 
3 195 183 182 
3 195 172 188 
3 195 182 172 
3 195 196 183 
3 197 184 169 
3 197 185 184 
3 197 169 181 
3 197 198 185 
3 199 193 192 
3 199 192 179 
3 199 200 193 
3 199 179 185 
3 201 186 187 
3 201 189 186 
3 201 187 202 
3 201 203 189 
3 204 190 177 
3 204 191 190 
3 204 177 183 
3 204 205 191 
3 206 195 188 
3 206 196 195 
3 206 188 189 
3 206 207 196 
3 208 209 198 
3 208 197 181 
3 208 198 197 
3 208 181 191 
3 210 204 183 
3 210 205 204 
3 210 211 205 
3 210 183 196 
3 212 213 203 
3 212 202 214 
3 212 201 202 
3 212 203 201 
3 215 216 207 
3 215 206 189 
3 215 189 203 
3 215 207 206 
3 217 218 209 
3 217 191 205 
3 217 208 191 
3 217 209 208 
3 219 213 212 
3 219 220 213 
3 219 212 214 
3 221 222 211 
3 221 211 210 
3 221 196 207 
3 221 210 196 
3 223 198 209 
3 223 224 225 
3 226 203 213 
3 226 216 215 
3 226 227 216 
3 226 215 203 
3 228 218 217 
3 228 229 218 
3 228 205 211 
3 228 217 205 
3 230 214 231 
3 230 219 214 
3 230 220 219 
3 232 207 216 
3 232 222 221 
3 232 233 222 
3 232 221 207 
3 234 213 220 
3 234 227 226 
3 234 226 213 
3 234 235 227 
3 236 211 222 
3 236 229 228 
3 236 228 211 
3 236 237 229 
3 238 220 230 
3 239 216 227 
3 239 232 216 
3 239 240 233 
3 239 233 232 
3 241 218 229 
3 241 242 243 
3 244 234 220 
3 244 235 234 
3 244 220 238 
3 245 222 233 
3 245 246 237 
3 245 236 222 
3 245 237 236 
3 247 248 242 
3 247 229 237 
3 247 241 229 
3 247 242 241 
3 249 239 227 
3 249 250 240 
3 249 227 235 
3 249 240 239 
3 251 245 233 
3 251 233 240 
3 188 172 171 
3 251 252 246 
3 251 246 245 
3 253 251 240 
3 253 252 251 
3 253 240 250 
3 254 246 252 
3 254 255 256 
3 257 258 259 
3 260 261 262 
3 260 263 261 
3 260 262 264 
3 265 231 266 
3 265 266 267 
3 268 269 270 
3 268 271 269 
3 272 268 270 
3 272 273 262 
3 274 272 270 
3 274 275 273 
3 274 273 272 
3 274 276 275 
3 274 270 277 
3 274 277 276 
3 278 279 280 
3 278 280 281 
3 282 283 279 
3 282 284 283 
3 285 286 287 
3 285 287 284 
3 288 289 290 
3 288 290 286 
3 291 292 293 
3 291 293 294 
3 291 294 295 
3 296 12 14 
3 296 14 292 
3 297 298 13 
3 297 13 12 
3 299 42 298 
3 299 40 42 
3 300 47 35 
3 300 48 47 
3 300 301 48 
3 302 72 301 
3 302 69 72 
3 303 304 71 
3 303 71 69 
3 305 91 93 
3 305 93 304 
3 306 307 99 
3 306 99 98 
3 306 98 85 
3 308 121 123 
3 308 123 307 
3 309 122 121 
3 309 310 122 
3 311 143 310 
3 311 141 143 
3 312 152 151 
3 312 313 152 
3 312 151 136 
3 314 175 313 
3 314 173 175 
3 315 316 174 
3 315 174 173 
3 317 194 316 
3 317 192 194 
3 318 200 199 
3 318 199 185 
3 318 319 200 
3 320 225 319 
3 320 223 225 
3 321 224 223 
3 321 322 224 
3 323 230 231 
3 324 325 326 
3 323 238 230 
3 327 243 322 
3 327 241 243 
3 328 249 235 
3 328 250 249 
3 329 248 247 
3 329 330 248 
3 329 247 237 
3 331 254 256 
3 331 256 330 
3 332 250 328 
3 332 262 261 
3 333 252 253 
3 333 253 250 
3 333 332 261 
3 333 261 263 
3 333 263 252 
3 333 250 332 
3 334 255 254 
3 334 335 255 
3 336 260 264 
3 336 264 335 
3 337 231 265 
3 337 265 267 
3 337 272 262 
3 337 338 271 
3 337 267 338 
3 337 262 231 
3 337 271 268 
3 337 268 272 
3 339 278 281 
3 339 281 275 
3 339 279 278 
3 339 282 279 
3 339 275 276 
3 340 286 285 
3 340 285 284 
3 340 288 286 
3 340 341 342 
3 340 284 341 
3 266 231 343 
3 344 291 295 
3 344 295 15 
3 267 266 345 
3 346 291 344 
3 346 292 291 
3 347 345 266 
3 347 266 343 
3 346 296 292 
3 347 343 259 
3 347 259 258 
3 348 297 12 
3 347 258 345 
3 348 299 298 
3 348 16 25 
3 348 298 297 
3 348 12 16 
3 338 267 345 
3 349 300 35 
3 350 338 345 
3 350 271 338 
3 350 351 271 
3 350 345 258 
3 349 35 46 
3 352 353 257 
3 354 301 300 
3 354 302 301 
3 352 257 259 
3 354 300 349 
3 352 259 355 
3 356 303 69 
3 357 258 257 
3 356 69 57 
3 357 351 350 
3 356 57 66 
3 357 350 258 
3 357 358 351 
3 356 304 303 
3 359 353 352 
3 356 305 304 
3 359 352 355 
3 359 355 360 
3 361 306 85 
3 359 362 353 
3 361 85 97 
3 269 363 270 
3 269 271 351 
3 364 307 306 
3 364 308 307 
3 365 257 353 
3 365 366 358 
3 364 306 361 
3 365 358 357 
3 367 121 108 
3 365 357 257 
3 367 311 310 
3 367 310 309 
3 368 369 362 
3 367 108 114 
3 368 360 370 
3 367 309 121 
3 368 359 360 
3 368 362 359 
3 371 372 363 
3 373 136 147 
3 371 363 269 
3 371 269 351 
3 373 312 136 
3 371 351 358 
3 374 312 373 
3 374 314 313 
3 374 313 312 
3 375 376 366 
3 377 173 158 
3 375 366 365 
3 377 158 167 
3 375 365 353 
3 377 316 315 
3 375 353 362 
3 377 315 173 
3 377 317 316 
3 277 270 363 
3 378 318 185 
3 379 380 372 
3 379 358 366 
3 378 185 198 
3 379 372 371 
3 381 319 318 
3 381 320 319 
3 379 371 358 
3 381 318 378 
3 281 280 262 
3 382 223 209 
3 281 273 275 
3 281 262 273 
3 382 209 218 
3 383 326 325 
3 382 321 223 
3 383 325 369 
3 18 384 385 
3 382 322 321 
3 383 370 326 
3 382 327 322 
3 383 368 370 
3 386 328 235 
3 383 369 368 
3 386 231 262 
3 387 362 369 
3 386 323 231 
3 386 262 332 
3 387 376 375 
3 386 332 328 
3 387 375 362 
3 386 244 238 
3 387 388 376 
3 386 235 244 
3 386 238 323 
3 389 363 372 
3 390 329 237 
3 389 341 276 
3 389 277 363 
3 389 276 277 
3 390 237 246 
3 391 379 366 
3 391 392 380 
3 393 329 390 
3 391 366 376 
3 393 330 329 
3 391 380 379 
3 393 331 330 
3 394 388 387 
3 394 387 369 
3 395 263 260 
3 395 260 336 
3 394 369 325 
3 395 335 334 
3 394 396 388 
3 395 336 335 
3 397 372 380 
3 395 254 252 
3 397 341 389 
3 395 334 254 
3 397 342 341 
3 395 252 263 
3 398 282 339 
3 397 389 372 
3 398 339 276 
3 399 400 324 
3 398 284 282 
3 399 324 326 
3 398 276 284 
3 399 326 401 
3 402 289 288 
3 402 342 289 
3 403 391 376 
3 402 340 342 
3 403 392 391 
3 402 288 340 
3 403 404 392 
3 405 12 296 
3 405 344 15 
3 403 376 388 
3 405 346 344 
3 284 276 341 
3 405 296 346 
3 405 15 12 
3 284 287 283 
3 406 25 40 
3 406 299 348 
3 406 348 25 
3 406 40 299 
3 407 394 325 
3 408 46 69 
3 407 396 394 
3 408 354 349 
3 408 302 354 
3 407 325 324 
3 408 69 302 
3 407 409 396 
3 408 349 46 
3 410 91 305 
3 411 397 380 
3 410 356 66 
3 411 380 392 
3 410 66 91 
3 411 342 397 
3 410 305 356 
3 411 412 342 
3 413 361 97 
3 414 404 403 
3 413 308 364 
3 414 403 388 
3 413 364 361 
3 413 97 121 
3 414 388 396 
3 413 121 308 
3 414 415 404 
3 416 367 114 
3 417 401 418 
3 416 311 367 
3 416 141 311 
3 417 399 401 
3 416 114 141 
3 417 419 400 
3 420 147 173 
3 417 400 399 
3 420 374 373 
3 421 324 400 
3 420 314 374 
3 421 407 324 
3 420 173 314 
3 420 373 147 
3 421 409 407 
3 422 192 317 
3 421 423 409 
3 422 167 192 
3 424 295 412 
3 422 377 167 
3 424 411 392 
3 422 317 377 
3 424 392 404 
3 425 223 320 
3 424 412 411 
3 425 378 198 
3 425 320 381 
3 426 427 415 
3 425 381 378 
3 426 414 396 
3 425 198 223 
3 426 415 414 
3 428 218 241 
3 428 241 327 
3 426 396 409 
3 428 327 382 
3 429 417 418 
3 428 382 218 
3 429 418 385 
3 430 254 331 
3 429 385 384 
3 430 390 246 
3 429 419 417 
3 430 393 390 
3 429 384 419 
3 430 331 393 
3 430 246 254 
3 289 431 290 
3 289 342 412 
3 432 421 400 
3 432 400 419 
3 432 423 421 
3 432 7 423 
3 433 295 424 
3 433 424 404 
3 433 15 295 
3 433 404 415 
3 294 412 295 
3 294 293 431 
3 294 431 289 
3 294 289 412 
3 434 409 423 
3 434 427 426 
3 434 426 409 
3 434 23 427 
3 435 419 384 
3 435 432 419 
3 435 7 432 
3 435 8 7 
3 436 415 427 
3 436 16 15 
3 436 433 415 
3 436 15 433 
3 3 385 1 
3 3 18 385 
3 3 4 18 
3 9 23 434 
3 9 423 7 
3 9 434 423 
3 9 10 23 
3 21 435 384 
3 21 384 18 
3 21 8 435 
3 21 20 8 
3 24 436 427 
3 24 427 23 
3 24 25 16 
3 24 16 436 
3 437 50 438 
3 59 50 437 
3 438 30 439 
3 50 30 438 
3 401 326 440 
3 440 326 441 
3 439 2 442 
3 30 2 439 
3 441 370 443 
3 326 370 441 
3 442 1 444 
3 2 1 442 
3 443 360 445 
3 370 360 443 
3 444 385 446 
3 1 385 444 
3 445 355 447 
3 360 355 445 
3 446 418 448 
3 385 418 446 
3 448 401 440 
3 447 259 449 
3 418 401 448 
3 355 259 447 
3 449 343 450 
3 259 343 449 
3 450 231 451 
3 343 231 450 
3 451 214 452 
3 231 214 451 
3 452 202 453 
3 214 202 452 
3 453 187 454 
3 202 187 453 
3 187 171 454 
3 454 171 455 
3 171 162 455 
3 455 162 456 
3 162 149 456 
3 456 149 457 
3 149 130 457 
3 457 130 458 
3 130 118 458 
3 458 118 459 
3 118 103 459 
3 459 103 460 
3 103 89 460 
3 460 89 461 
3 461 79 462 
3 89 79 461 
3 462 59 437 
3 79 59 462 
3 262 463 464 
3 264 262 464 
3 264 464 465 
3 335 264 465 
3 335 465 466 
3 255 335 466 
3 255 466 467 
3 256 255 467 
3 256 467 468 
3 330 256 468 
3 330 468 469 
3 248 330 469 
3 248 469 470 
3 242 248 470 
3 242 470 471 
3 243 242 471 
3 243 471 472 
3 322 243 472 
3 322 472 473 
3 224 322 473 
3 224 473 474 
3 225 474 475 
3 225 224 474 
3 319 475 476 
3 319 225 475 
3 200 319 476 
3 200 476 477 
3 193 200 477 
3 193 477 478 
3 194 193 478 
3 194 478 479 
3 316 194 479 
3 316 479 480 
3 174 316 480 
3 174 480 481 
3 175 174 481 
3 175 481 482 
3 313 175 482 
3 313 482 483 
3 152 313 483 
3 152 483 484 
3 142 484 485 
3 142 152 484 
3 143 485 486 
3 143 142 485 
3 310 486 487 
3 310 143 486 
3 122 310 487 
3 122 487 488 
3 123 122 488 
3 123 488 489 
3 307 123 489 
3 307 489 490 
3 99 307 490 
3 99 490 491 
3 92 99 491 
3 92 491 492 
3 93 92 492 
3 93 492 493 
3 304 93 493 
3 304 493 494 
3 71 304 494 
3 71 494 495 
3 72 71 495 
3 72 495 496 
3 301 72 496 
3 301 496 497 
3 48 301 497 
3 48 497 498 
3 41 48 498 
3 41 498 499 
3 42 41 499 
3 42 499 500 
3 298 42 500 
3 298 500 501 
3 13 298 501 
3 13 501 502 
3 14 13 502 
3 14 502 503 
3 292 14 503 
3 292 503 504 
3 293 292 504 
3 293 504 505 
3 431 505 506 
3 431 293 505 
3 290 431 506 
3 290 506 507 
3 286 507 508 
3 286 290 507 
3 287 508 509 
3 287 286 508 
3 283 509 510 
3 283 287 509 
3 279 510 511 
3 279 283 510 
3 280 511 512 
3 280 279 511 
3 262 512 463 
3 262 280 512 
3 455 472 471 
3 512 450 463 
3 511 450 512 
3 449 450 511 
3 442 492 439 
3 501 440 502 
3 500 440 501 
3 493 492 442 
3 502 440 441 
3 456 473 455 
3 455 473 472 
3 450 451 463 
3 464 451 465 
3 463 451 464 
3 492 491 439 
3 499 448 500 
3 498 448 499 
3 456 474 473 
3 500 448 440 
3 466 452 467 
3 465 452 466 
3 439 490 438 
3 451 452 465 
3 491 490 439 
3 457 475 456 
3 497 446 498 
3 496 446 497 
3 456 475 474 
3 498 446 448 
3 490 489 438 
3 468 453 469 
3 467 453 468 
3 452 453 467 
3 457 476 475 
3 495 444 496 
3 489 488 438 
3 496 444 446 
3 438 488 437 
3 453 454 469 
3 458 477 457 
3 457 477 476 
3 488 487 437 
3 454 470 469 
3 458 478 477 
3 487 486 437 
3 495 494 444 
3 444 494 442 
3 437 486 462 
3 458 479 478 
3 459 479 458 
3 486 485 462 
3 462 485 461 
3 459 480 479 
3 506 445 507 
3 485 484 461 
3 505 445 506 
3 459 481 480 
3 460 481 459 
3 484 483 461 
3 461 483 460 
3 460 482 481 
3 483 482 460 
3 508 447 509 
3 454 471 470 
3 507 447 508 
3 455 471 454 
3 445 447 507 
3 504 443 505 
3 494 493 442 
3 505 443 445 
3 447 449 509 
3 510 449 511 
3 509 449 510 
3 504 441 443 
3 503 441 504 
3 502 441 503 
